<svg width="219" height="196" viewBox="0 0 219 196" fill="none" xmlns="http://www.w3.org/2000/svg">
<path d="M109.5 163C145.675 163 175 133.675 175 97.5C175 61.3254 145.675 32 109.5 32C73.3253 32 44 61.3254 44 97.5C44 133.675 73.3253 163 109.5 163Z" fill="#EBEBEB"/>
<path d="M132.834 158.723C131.979 159.069 131.108 159.369 130.223 159.654C130.189 159.665 130.152 159.665 130.118 159.654C124.681 161.456 119.03 162.531 113.311 162.85C112.996 161.605 112.711 160.359 112.426 159.129C112.141 157.898 111.886 156.563 111.721 155.407C111.443 153.691 111.328 151.953 111.376 150.215C111.361 150.146 111.361 150.074 111.376 150.005C111.376 149.795 111.376 149.6 111.376 149.42C111.376 149.225 111.376 149.045 111.376 148.865C111.467 148.041 111.669 147.233 111.976 146.464C112.023 146.323 112.084 146.188 112.156 146.059V145.954C112.519 145.165 113.137 144.52 113.909 144.123C114.681 143.726 115.565 143.599 116.418 143.763C117.307 143.905 118.169 144.188 118.969 144.603C119.49 144.837 119.992 145.113 120.469 145.428C124.539 148.316 128.043 151.928 130.808 156.082C131.588 156.998 132.204 157.868 132.834 158.723Z" fill="#AD6359"/>
<path d="M133.674 158.408C133.389 158.513 133.119 158.633 132.834 158.723C131.979 159.068 131.108 159.369 130.223 159.654C130.189 159.665 130.152 159.665 130.118 159.654C124.681 161.456 119.03 162.531 113.311 162.85H112.696C112.561 162.16 112.411 161.499 112.291 160.854C112.021 159.489 111.811 158.213 111.661 157.013C111.571 156.382 111.496 155.782 111.451 155.212C111.306 153.796 111.26 152.372 111.316 150.95C111.316 150.95 111.316 150.95 111.316 150.86C111.33 150.358 111.371 149.858 111.436 149.36C111.436 149.165 111.436 148.985 111.436 148.805C111.511 148.323 111.617 147.847 111.751 147.379C111.751 147.124 111.886 146.884 111.961 146.659C111.979 146.572 112.004 146.487 112.036 146.404C112.083 146.263 112.144 146.128 112.216 145.998V145.893C112.363 145.554 112.539 145.228 112.741 144.918C112.896 144.691 113.066 144.475 113.251 144.273L113.507 144.018C113.621 143.9 113.746 143.795 113.882 143.703C114.301 143.387 114.781 143.163 115.292 143.042L115.817 142.937C116.226 142.885 116.639 142.885 117.048 142.937C118.292 143.106 119.487 143.53 120.559 144.183C124.17 146.483 127.275 149.496 129.683 153.036L133.674 158.408Z" fill="#EF042D"/>
<path opacity="0.1" d="M130.223 159.654C130.189 159.665 130.152 159.665 130.118 159.654C124.681 161.456 119.03 162.531 113.312 162.85H112.696C112.561 162.16 112.411 161.499 112.291 160.854C112.021 159.489 111.811 158.213 111.661 157.013C111.571 156.397 111.511 155.797 111.466 155.227C111.308 153.807 111.258 152.378 111.316 150.95C111.316 150.95 111.316 150.95 111.316 150.86C111.316 150.77 111.316 150.395 111.316 150.17C111.301 150.101 111.301 150.029 111.316 149.96C111.38 149.094 111.521 148.235 111.736 147.394C111.736 147.139 111.871 146.899 111.946 146.674C112.019 146.449 112.105 146.229 112.201 146.014V145.908C112.348 145.569 112.524 145.243 112.726 144.933C112.881 144.706 113.051 144.49 113.236 144.288L113.492 144.033C113.606 143.916 113.731 143.81 113.867 143.718C114.286 143.402 114.766 143.178 115.277 143.057L115.802 142.952L116.463 143.718L120.289 148.219C123.14 151.506 126.291 155.122 129.548 158.963C129.848 159.219 130.028 159.444 130.223 159.654Z" fill="black"/>
<path d="M130.118 159.699C124.681 161.501 119.03 162.576 113.311 162.895H112.696C111.631 162.895 110.565 162.97 109.5 162.97C105.529 162.974 101.567 162.618 97.6605 161.905C97.4504 161.905 97.2253 161.83 97.0152 161.77C92.1263 160.819 87.3631 159.308 82.8198 157.268C85.316 153.268 88.2065 149.528 91.4481 146.104C92.1984 145.353 92.9487 144.663 93.699 144.033C94.805 143.088 95.9897 142.24 97.2403 141.497C98.1519 140.952 99.1053 140.48 100.091 140.086C106.214 137.655 111.976 139.186 117.153 142.967C117.828 143.463 118.488 143.988 119.134 144.558L119.419 144.798C119.835 145.221 120.221 145.672 120.574 146.149C122.36 148.414 125.811 153.201 129.668 158.918L130.118 159.699Z" fill="#EF042D"/>
<path d="M102.627 147.304C101.355 152.351 99.4699 157.224 97.0152 161.815C92.1263 160.864 87.3631 159.354 82.8198 157.313C81.5143 156.728 80.2088 156.097 78.9484 155.422C81.8611 152.715 84.9166 150.165 88.1018 147.784C89.8725 146.494 91.8233 145.173 93.699 144.078C95.6121 142.798 97.7849 141.957 100.061 141.617C102.252 141.572 103.498 143.042 102.627 147.304Z" fill="#AD6359"/>
<path d="M102.943 147.709C101.973 151.509 100.667 155.215 99.041 158.783C98.5908 159.819 98.1406 160.869 97.6605 161.95C97.4504 161.95 97.2253 161.875 97.0152 161.815C92.1263 160.864 87.3631 159.354 82.8198 157.313C81.5143 156.728 80.2088 156.097 78.9484 155.422C78.6182 155.257 78.3031 155.077 77.988 154.897C79.8037 153.276 81.4993 151.896 83.0149 150.68C89.3473 145.788 93.9991 142.847 97.2403 141.542C98.1463 141.158 99.1005 140.901 100.076 140.777C103.273 140.506 103.978 143.087 102.943 147.709Z" fill="#EF042D"/>
<path d="M100.106 143.268C100.512 145.143 109.26 157.388 117.798 157.118C120.589 157.013 120.799 141.797 120.799 141.797L121.069 140.687L124.806 124.991L106.499 112.866L103.843 111.26C103.843 111.26 103.108 115.627 102.237 121.059C102.237 121.314 102.147 121.569 102.117 121.839C102.087 122.109 101.997 122.425 101.952 122.725L101.547 125.186C101.457 125.816 101.367 126.431 101.292 127.091C101.217 127.752 101.112 128.412 101.022 129.072C100.388 133.777 100.083 138.52 100.106 143.268Z" fill="#AD6359"/>
<path d="M102.177 121.059C103.701 125.503 106.176 129.56 109.428 132.95C112.68 136.34 116.633 138.98 121.009 140.687L124.746 124.991L106.499 112.866L103.843 111.26C103.843 111.26 103.048 115.567 102.177 121.059Z" fill="#263238"/>
<path d="M124.686 69.9945C124.692 69.8946 124.692 69.7943 124.686 69.6944C124.396 68.2096 123.567 66.8844 122.36 65.973C121.871 65.5893 121.324 65.2854 120.739 65.0726L120.289 64.8926L120.409 64.7875C120.769 64.5018 121.083 64.1628 121.34 63.7821C121.894 63.0135 122.217 62.1023 122.27 61.1561C122.345 60.1701 122.13 59.1837 121.653 58.3176C121.176 57.4515 120.457 56.7432 119.584 56.2793C120.023 55.7865 120.311 55.1783 120.415 54.5267C120.518 53.8752 120.433 53.2075 120.169 52.6029C119.833 51.9202 119.366 51.3105 118.794 50.8084C118.223 50.3064 117.558 49.9218 116.838 49.6767C116.959 48.9972 116.909 48.298 116.691 47.6429C116.474 46.9877 116.096 46.3973 115.592 45.9253C114.916 45.3492 114.057 45.0328 113.169 45.0328C112.281 45.0328 111.421 45.3492 110.745 45.9253C109.607 43.6669 107.68 41.9048 105.328 40.9734C104.331 40.6339 103.256 40.5951 102.237 40.8619C101.218 41.1287 100.299 41.6893 99.5962 42.474C98.94 41.6565 98.1176 40.9878 97.1834 40.5122C96.2492 40.0366 95.2246 39.7649 94.1775 39.7153C93.1304 39.6656 92.0846 39.8391 91.1096 40.2241C90.1346 40.6092 89.2526 41.1971 88.522 41.9488C87.7636 41.44 86.8851 41.139 85.974 41.0758C85.063 41.0126 84.1513 41.1895 83.33 41.5887C82.1599 42.088 81.1296 42.8659 80.3289 43.8545C79.6202 43.4585 78.8057 43.2933 77.9988 43.3821C77.1918 43.4708 76.4327 43.8091 75.8271 44.3497C75.2759 44.8752 74.8485 45.5168 74.576 46.2279C74.3035 46.9391 74.1926 47.702 74.2516 48.4613C74.0158 48.8418 73.6979 49.1649 73.3212 49.4067C72.3808 50.011 71.604 50.838 71.0596 51.8143C70.5152 52.7906 70.2199 53.8861 70.2 55.0038C69.5655 55.1831 68.9766 55.4957 68.4725 55.9207C67.9684 56.3457 67.5607 56.8733 67.2766 57.4684C66.9926 58.0634 66.8388 58.7122 66.8253 59.3714C66.8119 60.0306 66.9393 60.6851 67.1988 61.2912C66.0582 62.0476 65.2613 63.2227 64.9804 64.5623C64.6996 65.9018 64.9575 67.2981 65.6983 68.4489C64.8772 69.1284 64.2103 69.975 63.742 70.9323C63.2736 71.8896 63.0147 72.9358 62.9822 74.001C62.8889 74.8542 63.0465 75.716 63.4356 76.481C63.8248 77.2459 64.4286 77.8807 65.1731 78.3077C64.7607 78.8123 64.5494 79.4515 64.5798 80.1025C64.6103 80.7534 64.8804 81.3702 65.3381 81.834C65.6614 82.2023 66.0236 82.5344 66.4186 82.8244C66.9777 83.1262 67.4845 83.5164 67.9191 83.9798C68.1468 84.5464 68.2492 85.1556 68.2192 85.7655C68.2781 86.1813 68.3838 86.589 68.5344 86.981C69.1 88.4515 70.1546 89.6824 71.521 90.4667C72.8874 91.251 74.4822 91.5409 76.0372 91.2876C76.296 92.3448 76.8613 93.3019 77.6622 94.0387C78.4632 94.7756 79.464 95.2593 80.539 95.4292C81.2083 95.5987 81.8911 95.7092 82.5797 95.7593C83.202 95.7685 83.8077 95.9616 84.3204 96.3146C84.6355 96.5696 84.8906 96.8998 85.2207 97.1549L85.5509 97.395C86.5955 97.9312 87.7917 98.0953 88.9421 97.8601C88.9862 98.1089 89.0464 98.3545 89.1222 98.5954C89.3555 99.4213 89.7741 100.183 90.3462 100.823C90.9183 101.462 91.6287 101.963 92.4235 102.287C92.5985 102.365 92.7791 102.43 92.9637 102.482L93.4139 102.602C93.7046 102.675 94.0006 102.725 94.2992 102.752C95.8287 102.881 97.3603 102.529 98.6809 101.747C99.0363 101.549 99.3685 101.313 99.6713 101.041C100.072 100.713 100.434 100.34 100.752 99.9309C101.844 100.701 103.137 101.134 104.473 101.176C105.576 101.211 106.669 100.952 107.639 100.426C108.512 99.94 109.25 99.2437 109.785 98.4003C110.58 97.2409 110.984 95.8587 110.941 94.4538C111.692 94.9517 112.541 95.284 113.431 95.4289C114.321 95.5738 115.232 95.5279 116.103 95.2942C116.842 95.0682 117.523 94.6842 118.098 94.1687C118.316 93.9812 118.513 93.7698 118.683 93.5385C119.437 92.5722 119.858 91.3876 119.882 90.1622C119.907 88.9368 119.533 87.7364 118.819 86.7409C119.467 87.8551 119.721 89.1548 119.542 90.4312C119.362 91.7076 118.759 92.8865 117.828 93.7786C117.053 94.4455 116.097 94.8672 115.082 94.9901C114.067 95.1129 113.038 94.9315 112.126 94.4689C113.09 94.551 114.061 94.4335 114.977 94.1237C115.894 93.8138 116.737 93.3184 117.453 92.6682C118.229 91.9207 118.765 90.9601 118.995 89.9077C119.225 88.8554 119.137 87.7586 118.744 86.7559C119.932 86.3555 121.011 85.683 121.894 84.7921C122.778 83.9011 123.441 82.8163 123.83 81.624C124.112 80.5997 124.09 79.5159 123.767 78.5038C123.445 77.4918 122.836 76.5949 122.015 75.9218C123.189 75.1581 124.08 74.0299 124.551 72.7105C124.727 72.2793 124.839 71.8241 124.881 71.36C124.903 71.2259 124.903 71.089 124.881 70.9549C124.892 70.9396 124.898 70.9212 124.898 70.9024C124.898 70.8835 124.892 70.8651 124.881 70.8498C124.855 70.5572 124.789 70.2695 124.686 69.9945ZM80.1188 44.1546C80.1188 44.1546 79.5485 44.1546 79.2784 44.1546C78.7661 44.1902 78.2612 44.2962 77.7779 44.4698C76.779 44.8325 75.9116 45.4858 75.287 46.3455C75.0221 46.7329 74.8054 47.1511 74.6417 47.5909V47.756C74.754 46.8353 75.1174 45.9631 75.6921 45.2351C76.2369 44.5767 76.9733 44.1043 77.7989 43.8838C78.6245 43.6633 79.4983 43.7055 80.2989 44.0046L80.1188 44.1546ZM115.337 46.1954C115.784 46.6063 116.112 47.1289 116.289 47.7093C116.466 48.2897 116.484 48.9067 116.343 49.4967C116.213 48.6886 115.865 47.9311 115.337 47.3058C114.805 46.6899 114.096 46.2529 113.307 46.0542C112.517 45.8555 111.686 45.9049 110.926 46.1954C110.897 46.1576 110.872 46.1174 110.851 46.0754C111.495 45.5685 112.296 45.303 113.116 45.325C113.935 45.3469 114.721 45.6548 115.337 46.1954ZM94.0441 102.302C93.7772 102.283 93.5116 102.248 93.2488 102.197L92.8136 102.077C92.5653 102.004 92.3242 101.909 92.0933 101.792C91.3699 101.426 90.7298 100.914 90.2134 100.29C89.6969 99.6646 89.3152 98.9397 89.0922 98.1603C89.0458 98.0526 89.0057 97.9424 88.9722 97.8301L89.0772 98.0402C89.7005 99.2281 90.6406 100.22 91.7933 100.906C92.1012 101.085 92.4223 101.241 92.7536 101.371L93.1888 101.522C93.3991 101.598 93.6148 101.658 93.834 101.702C95.3434 102.048 96.9247 101.89 98.3357 101.251C97.0292 101.99 95.5441 102.354 94.0441 102.302Z" fill="#263238"/>
<path d="M145.304 99.6458C151.141 127.331 135.205 133.964 129.233 135.209C123.8 136.35 105.223 139.531 96.535 112.581C87.8467 85.6304 98.906 74.1661 111.166 70.9098C123.425 67.6536 139.511 71.9452 145.304 99.6458Z" fill="#AD6359"/>
<path d="M138.476 96.0595C137.826 96.097 137.175 96.097 136.525 96.0595C135.837 96.1434 135.14 95.9956 134.545 95.6393C134.377 95.4907 134.264 95.2905 134.223 95.0703C134.182 94.8501 134.216 94.6226 134.319 94.4239C134.576 94.0608 134.927 93.7742 135.334 93.5945C135.741 93.4149 136.189 93.3488 136.63 93.4035C137.536 93.3656 138.424 93.665 139.121 94.2438C139.259 94.3885 139.353 94.5684 139.395 94.7636C139.436 94.9588 139.423 95.1617 139.356 95.3497C139.289 95.5377 139.172 95.7036 139.016 95.8289C138.861 95.9542 138.674 96.034 138.476 96.0595Z" fill="#263238"/>
<path d="M118.894 100.141C119.511 99.922 120.117 99.6716 120.709 99.3907C121.382 99.2094 121.977 98.8144 122.405 98.2653C122.505 98.0673 122.536 97.8412 122.493 97.6235C122.449 97.4058 122.334 97.2091 122.165 97.0649C121.794 96.8206 121.364 96.6806 120.921 96.6595C120.477 96.6384 120.036 96.7369 119.644 96.9448C118.783 97.242 118.062 97.8456 117.618 98.6405C117.529 98.8284 117.496 99.038 117.523 99.2441C117.551 99.4502 117.637 99.6441 117.771 99.8025C117.906 99.961 118.084 100.077 118.283 100.137C118.482 100.197 118.694 100.199 118.894 100.141Z" fill="#263238"/>
<path d="M124.581 106.143C124.581 106.068 124.461 106.263 124.476 106.338C124.941 108.214 125.151 110.435 123.575 111.41C123.575 111.41 123.575 111.545 123.575 111.515C125.631 110.78 125.316 107.839 124.581 106.143Z" fill="#263238"/>
<path d="M122.48 104.523C119.479 104.943 120.454 111.065 123.305 110.69C126.156 110.315 125.061 104.178 122.48 104.523Z" fill="#263238"/>
<path d="M121.34 105.063C120.859 105.498 120.439 106.203 119.839 106.368C119.239 106.533 118.428 106.023 117.828 105.498C117.828 105.498 117.723 105.498 117.738 105.588C117.918 106.759 118.578 107.884 119.869 107.854C121.159 107.824 121.7 106.624 121.79 105.393C121.775 105.168 121.505 104.883 121.34 105.063Z" fill="#263238"/>
<path d="M135.565 103.337C135.565 103.337 135.73 103.412 135.745 103.487C136 105.393 136.6 107.539 138.431 107.899V108.004C136.285 108.064 135.505 105.198 135.565 103.337Z" fill="#263238"/>
<path d="M136.945 101.071C139.947 100.336 141.207 106.443 138.446 107.074C135.685 107.704 134.41 101.687 136.945 101.071Z" fill="#263238"/>
<path d="M138.296 101.221C138.851 101.447 139.436 101.927 140.022 101.852C140.607 101.777 141.057 100.996 141.357 100.276C141.357 100.201 141.447 100.276 141.462 100.276C141.732 101.432 141.597 102.722 140.517 103.172C139.436 103.622 138.581 102.737 138.071 101.672C138.011 101.492 138.011 101.131 138.296 101.221Z" fill="#263238"/>
<path d="M128.407 120.834C128.917 121.224 129.458 121.779 130.163 121.749C130.872 121.645 131.551 121.394 132.159 121.014C132.159 121.014 132.279 121.014 132.249 121.104C132.022 121.513 131.689 121.853 131.284 122.088C130.88 122.323 130.42 122.444 129.953 122.44C129.551 122.388 129.174 122.217 128.869 121.95C128.564 121.683 128.346 121.331 128.242 120.939C128.197 120.834 128.332 120.774 128.407 120.834Z" fill="#263238"/>
<path d="M135.01 112.566C135.01 112.566 135.925 115.327 136.165 116.662C136.165 116.782 135.88 116.902 135.43 117.022C134.323 117.447 133.12 117.556 131.955 117.339C130.79 117.122 129.707 116.586 128.827 115.792C128.798 115.768 128.778 115.733 128.774 115.695C128.77 115.657 128.781 115.619 128.805 115.589C128.829 115.56 128.864 115.54 128.902 115.536C128.939 115.532 128.978 115.543 129.007 115.567C130.925 116.421 133.068 116.632 135.115 116.167C135.115 115.777 133.389 111.485 133.614 111.44C134.665 111.342 135.725 111.382 136.765 111.56C135.04 105.768 132.399 100.291 130.763 94.4839C130.743 94.4401 130.742 94.3902 130.758 94.3452C130.775 94.3002 130.809 94.2637 130.853 94.2438C130.897 94.2239 130.947 94.2222 130.992 94.2391C131.037 94.256 131.073 94.2901 131.093 94.3338C134.111 100.12 136.544 106.192 138.356 112.461C138.581 113.151 135.655 112.656 135.01 112.566Z" fill="#263238"/>
<path d="M134.364 116.872C133.845 117.927 133.059 118.827 132.084 119.483C131.548 119.825 130.917 119.988 130.283 119.949C128.887 119.859 128.617 118.643 128.662 117.563C128.688 116.983 128.784 116.409 128.947 115.852C130.599 116.759 132.496 117.116 134.364 116.872Z" fill="#263238"/>
<path d="M132.084 119.483C131.548 119.825 130.917 119.988 130.283 119.949C128.887 119.859 128.617 118.643 128.662 117.563C129.366 117.449 130.087 117.577 130.708 117.926C131.33 118.274 131.814 118.824 132.084 119.483Z" fill="#FF9BBC"/>
<path d="M98.2757 111.605C103.513 112.071 104.443 100.081 104.443 100.081C104.443 100.081 126.546 95.5793 127.792 77.3623C130.854 84.6308 136.599 90.4401 143.833 93.5835C143.833 93.5835 142.333 73.761 126.501 70.4597C126.501 70.4597 106.724 64.0222 96.2799 79.9133C85.836 95.8044 94.7643 111.275 98.2757 111.605Z" fill="#263238"/>
<path d="M127.822 76.0118C128.187 78.7964 127.946 81.627 127.117 84.31C126.349 87.0597 125.009 89.6164 123.185 91.8129C122.715 92.3423 122.214 92.8433 121.685 93.3134L120.949 94.0637C120.679 94.3038 120.394 94.5139 120.109 94.739C119.554 95.1591 119.014 95.6093 118.428 96.0145C117.843 96.4196 117.228 96.7347 116.613 97.0799L115.697 97.6051L114.722 98.0102L112.801 98.8356C111.466 99.2557 110.115 99.6009 108.78 99.931C110.04 99.3307 111.331 98.8656 112.561 98.2653L114.362 97.305L115.262 96.8248C115.562 96.6447 115.832 96.4497 116.118 96.2546L117.798 95.1141C118.323 94.709 118.834 94.2588 119.299 93.8236L120.079 93.1784L120.769 92.4431C121.251 91.9721 121.702 91.4709 122.12 90.9425C123.841 88.8686 125.191 86.5131 126.111 83.9799C126.588 82.7069 126.959 81.397 127.222 80.0634C127.541 78.7332 127.742 77.3774 127.822 76.0118Z" fill="#263238"/>
<path d="M99.5362 121.674C99.9775 121.788 100.431 121.849 100.887 121.854C101.33 121.88 101.775 121.839 102.207 121.734C102.753 121.604 103.265 121.358 103.708 121.014C104.071 120.74 104.395 120.417 104.668 120.054C105.062 119.548 105.357 118.973 105.538 118.358L103.138 111.065C103.138 111.065 95.9348 103.037 92.2284 105.708C88.522 108.379 94.6593 120.519 99.5362 121.674Z" fill="#AD6359"/>
<path d="M94.0741 109.114C93.9991 109.114 93.9991 109.234 94.0741 109.249C97.5104 110.18 99.6112 113.001 101.202 116.002C100.97 115.698 100.676 115.447 100.338 115.267C100 115.087 99.628 114.982 99.2461 114.959C98.8643 114.936 98.482 114.996 98.1254 115.135C97.7689 115.273 97.4465 115.487 97.1803 115.762C97.1803 115.837 97.1803 115.957 97.3003 115.927C97.8544 115.684 98.469 115.614 99.0635 115.727C99.6579 115.839 100.205 116.129 100.632 116.557C101.335 117.295 101.958 118.105 102.492 118.973C102.687 119.243 103.198 118.973 103.033 118.703V118.628C102.567 114.441 98.6058 108.994 94.0741 109.114Z" fill="#263238"/>
<path d="M99.7913 120.444C99.8729 120.689 100.025 120.904 100.229 121.063C100.433 121.221 100.68 121.315 100.937 121.334C101.195 121.352 101.452 121.294 101.676 121.166C101.901 121.038 102.082 120.846 102.198 120.615C102.313 120.384 102.358 120.124 102.325 119.868C102.293 119.612 102.185 119.371 102.016 119.176C101.847 118.981 101.623 118.84 101.374 118.772C101.125 118.704 100.862 118.711 100.617 118.793C100.288 118.903 100.017 119.138 99.8623 119.448C99.7076 119.757 99.682 120.115 99.7913 120.444Z" fill="white"/>
<path d="M96.8802 118.808C96.9752 119.018 97.1444 119.184 97.3552 119.277C97.566 119.369 97.8034 119.379 98.0216 119.306C98.2398 119.234 98.4234 119.083 98.5368 118.883C98.6502 118.683 98.6855 118.448 98.6359 118.223C98.5571 117.991 98.3901 117.799 98.1709 117.69C97.9518 117.58 97.6983 117.562 97.4654 117.638C97.3494 117.675 97.2419 117.735 97.1494 117.814C97.0569 117.894 96.9811 117.991 96.9266 118.1C96.8721 118.209 96.8399 118.328 96.8319 118.449C96.824 118.571 96.8404 118.693 96.8802 118.808Z" fill="white"/>
<path d="M97.4954 120.759C97.6305 122.049 93.5489 117.953 93.3088 117.308C93.0687 116.662 90.3077 114.952 89.6174 113.721C88.6062 111.886 87.7769 109.956 87.1415 107.959C86.9764 107.074 85.1757 104.958 85.0707 103.352C84.9657 101.747 84.6355 87.6112 93.4739 77.5124C102.312 67.4135 110.67 66.2281 110.67 66.2281C114.86 65.2632 119.142 64.76 123.44 64.7275C130.388 64.7275 141.447 80.2884 141.447 80.6336C141.274 81.4347 141.274 82.2634 141.447 83.0645C141.837 84.0248 142.948 84.9552 142.483 85.9306C142.017 86.906 143.563 89.2018 143.608 90.2072C143.653 91.2126 143.413 91.4827 143.608 92.1579C143.803 92.8332 139.511 75.5466 117.948 70.8498C117.948 70.8498 94.4943 93.0583 97.4954 120.759Z" fill="#EF042D"/>
<path d="M143.683 92.0379C143.678 92.1029 143.678 92.168 143.683 92.233V92.0379Z" fill="#EF042D"/>
<path d="M143.683 92.0379V92.233C143.683 92.233 143.743 92.218 143.683 92.0379Z" fill="#EF042D"/>
<g opacity="0.3">
<path d="M86.352 99.3761C86.6999 99.5881 86.9672 99.9101 87.1114 100.291C87.1948 100.517 87.2326 100.756 87.2226 100.997C87.2126 101.237 87.155 101.473 87.053 101.69C86.9511 101.908 86.807 102.104 86.629 102.265C86.451 102.427 86.2426 102.552 86.016 102.632C85.7072 102.721 85.3795 102.721 85.0707 102.632V102.122C85.0707 101.416 85.1007 100.381 85.1907 99.1206C85.5955 99.0742 86.0041 99.1641 86.352 99.3761Z" fill="white"/>
<path d="M88.5351 110.071C88.7521 110.27 88.9175 110.518 89.0172 110.795V110.84C89.0985 111.07 89.1311 111.314 89.113 111.556C89.0949 111.799 89.0265 112.036 88.9121 112.251C88.522 111.44 88.1018 110.48 87.7717 109.655C88.0561 109.73 88.3182 109.873 88.5351 110.071Z" fill="white"/>
<path d="M93.834 105.108C93.9934 105.276 94.1161 105.475 94.1941 105.693V105.738C94.2733 105.978 94.3009 106.231 94.2751 106.482C94.2492 106.733 94.1705 106.975 94.0441 107.194C93.8395 107.596 93.4914 107.906 93.0687 108.064H92.9937C92.8896 108.119 92.7786 108.159 92.6636 108.184C92.3861 108.216 92.1048 108.182 91.8436 108.082C91.5825 107.983 91.349 107.822 91.163 107.614C90.9973 107.445 90.8739 107.239 90.8029 107.014C90.7217 106.791 90.6852 106.554 90.6955 106.318C90.7059 106.081 90.7629 105.849 90.8633 105.634C90.9637 105.419 91.1054 105.226 91.2805 105.067C91.4555 104.907 91.6604 104.783 91.8833 104.703C92.1445 104.596 92.4305 104.565 92.7086 104.613H92.9337H93.1287C93.401 104.717 93.6433 104.887 93.834 105.108Z" fill="white"/>
<path d="M88.0353 89.6393C88.3214 89.8505 88.5378 90.1423 88.657 90.4773V90.5223C88.8121 90.9643 88.7873 91.4494 88.588 91.8733C88.3887 92.2971 88.0309 92.6257 87.5916 92.7882C87.3612 92.8749 87.1149 92.9117 86.8692 92.8961C86.6235 92.8806 86.3838 92.8131 86.1661 92.6982C86.2411 92.5931 86.2411 92.5031 86.2411 92.3981V92.398C86.346 91.9486 86.4659 91.4841 86.5857 91.0197L86.5863 91.0175L86.6763 90.6874C86.7963 90.2672 86.9164 89.8471 87.0514 89.4119C87.0447 89.3722 87.0447 89.3316 87.0514 89.2919C87.4067 89.3072 87.7493 89.4281 88.0353 89.6393Z" fill="white"/>
</g>
<path opacity="0.1" d="M93.3389 117.308C93.1012 116.051 92.9906 114.774 93.0087 113.496C93.0087 112.221 93.0087 110.945 93.0087 109.67C93.0087 107.104 93.1138 104.553 93.2788 102.002C93.2788 101.372 93.3538 100.726 93.4439 100.111C93.5631 99.5003 93.7545 98.9059 94.0141 98.3403C94.5093 97.1699 95.0945 96.0295 95.6647 94.889C96.2349 93.7486 96.8352 92.6081 97.4354 91.4827L99.2361 88.0914C97.8706 90.2523 96.5801 92.4731 95.3496 94.724C94.7494 95.8494 94.1641 97.0048 93.6389 98.1753C93.3641 98.7769 93.1529 99.4055 93.0087 100.051C92.9187 100.696 92.8737 101.326 92.8287 101.972C92.6936 104.538 92.6336 107.104 92.6636 109.67C92.6636 110.945 92.6636 112.236 92.7986 113.511C92.7986 114.156 92.9037 114.787 92.9787 115.432C93.0306 116.068 93.1514 116.697 93.3389 117.308Z" fill="#050400"/>
<path opacity="0.1" d="M92.7986 90.9425C91.8752 92.1602 91.0426 93.4441 90.3076 94.784C89.5471 96.1172 88.8899 97.5068 88.3419 98.9406C87.7638 100.39 87.351 101.9 87.1114 103.442C86.8338 104.955 86.8338 106.506 87.1114 108.019C87.1114 107.644 87.1114 107.254 87.1114 106.879C87.0889 106.689 87.0889 106.498 87.1114 106.308V105.753C87.1114 105.558 87.1114 105.363 87.1114 105.183L87.2015 104.613C87.2015 104.253 87.2915 103.862 87.3815 103.502L87.6366 102.392L87.9518 101.311C88.0568 100.936 88.1768 100.591 88.3119 100.231C88.4469 99.8709 88.552 99.5108 88.7021 99.1657C89.243 97.7483 89.8591 96.3608 90.5477 95.0091C90.8779 94.3188 91.238 93.6585 91.6131 92.9833C91.9883 92.308 92.4084 91.5577 92.7986 90.9425Z" fill="#050400"/>
<path opacity="0.1" d="M141.267 82.3592C140.484 81.1342 139.59 79.9839 138.596 78.9229C137.636 77.8275 136.63 76.7771 135.595 75.7417C134.59 74.6843 133.528 73.6825 132.414 72.7406C131.259 71.8442 129.981 71.1213 128.617 70.5947C129.26 70.932 129.881 71.3079 130.478 71.7202C131.085 72.1064 131.662 72.5378 132.204 73.0106C132.744 73.4758 133.239 73.986 133.704 74.5112L135.205 76.0118L138.206 79.103C138.716 79.6132 139.211 80.1384 139.707 80.6786C140.261 81.2061 140.782 81.7673 141.267 82.3592Z" fill="#050400"/>
<path opacity="0.1" d="M142.513 86.6658C142.033 85.7335 141.497 84.8314 140.907 83.9648C140.32 83.0926 139.689 82.2512 139.016 81.4438C138.671 81.0406 138.305 80.655 137.921 80.2884C137.531 79.9433 137.141 79.5981 136.735 79.268L135.535 78.2476C135.13 77.9325 134.725 77.5874 134.304 77.2722L135.385 78.4127L136.51 79.5081C136.87 79.8833 137.261 80.2434 137.636 80.6035C138 80.9606 138.346 81.3363 138.671 81.729C139.346 82.5243 139.977 83.3496 140.622 84.1599C140.937 84.5801 141.267 84.9852 141.567 85.4053C141.867 85.8255 142.197 86.2457 142.513 86.6658Z" fill="#050400"/>
<path opacity="0.1" d="M95.3346 75.5166C98.996 76.8071 107.339 79.6582 109.185 79.3881C109.812 79.2723 110.429 79.1067 111.031 78.8929C113.13 76.0413 115.443 73.3526 117.948 70.8498C120.462 71.3856 122.919 72.1594 125.286 73.1607C127.202 71.7173 128.98 70.0998 130.598 68.3288C128.122 66.2731 125.601 64.8025 123.47 64.8025C119.172 64.8336 114.889 65.3368 110.7 66.3031C110.7 66.3031 103.498 67.2484 95.3346 75.5166Z" fill="#050400"/>
<path d="M116.463 67.0384C116.463 67.0384 123.035 57.4347 133.134 56.7745C133.134 56.7745 132.264 66.7233 128.632 69.8295C126.802 71.33 118.894 71.6902 118.038 70.3396C117.398 69.298 116.87 68.1914 116.463 67.0384Z" fill="#EF042D"/>
<path opacity="0.3" d="M122.3 64.8176C122.216 64.5855 122.085 64.3735 121.914 64.1952C121.744 64.0169 121.538 63.8762 121.31 63.7822C120.885 63.6164 120.414 63.6164 119.989 63.7822C119.772 63.855 119.573 63.9726 119.404 64.1273C119.138 64.3671 118.95 64.6805 118.864 65.0277C118.842 65.192 118.842 65.3585 118.864 65.5228C118.856 65.6127 118.856 65.7031 118.864 65.7929C118.85 65.8925 118.85 65.9935 118.864 66.093C118.935 66.2708 119.031 66.4375 119.149 66.5882C119.308 66.7935 119.51 66.9615 119.74 67.0808C119.971 67.2 120.225 67.2675 120.484 67.2785C120.748 67.2903 121.011 67.244 121.255 67.1428C121.498 67.0417 121.717 66.8882 121.895 66.6933C122.076 66.4959 122.209 66.2598 122.285 66.003C122.424 65.6209 122.429 65.2031 122.3 64.8176ZM130.643 63.6021C130.298 63.73 130.001 63.9603 129.791 64.2621C129.582 64.5639 129.469 64.9227 129.469 65.2902C129.469 65.6578 129.582 66.0166 129.791 66.3184C130.001 66.6202 130.298 66.8505 130.643 66.9784C130.889 66.4921 131.105 65.9909 131.288 65.4778C131.363 65.2977 131.423 65.1177 131.483 64.9376C131.633 64.5174 131.769 64.0823 131.889 63.6471C131.492 63.483 131.05 63.467 130.643 63.6021ZM126.667 58.5452L125.901 58.9203L125.166 59.3105L124.461 59.7156C124.699 59.935 124.994 60.0835 125.312 60.1445C125.63 60.2054 125.959 60.1764 126.261 60.0607C126.637 59.926 126.958 59.6701 127.172 59.3332C127.387 58.9964 127.484 58.5977 127.447 58.2L126.667 58.5452Z" fill="white"/>
<path opacity="0.1" d="M116.463 67.0534C116.857 68.1895 117.359 69.285 117.963 70.3247C118.002 70.3937 118.059 70.4508 118.128 70.4897C118.189 70.5554 118.26 70.6111 118.338 70.6548L118.533 70.7298C119.941 71.1619 121.42 71.3098 122.885 71.165C122.72 69.686 122.424 68.2246 122 66.7983C121.375 65.5574 120.371 64.5481 119.134 63.9172C118.156 64.8849 117.262 65.9341 116.463 67.0534Z" fill="#050400"/>
<path d="M114.002 68.2989C114.002 68.2989 100.091 65.4778 93.2188 68.1788C93.2188 68.1788 96.5501 75.6817 103.468 77.7975C106.574 78.7579 116.028 73.4909 115.607 71.7952C115.239 70.5603 114.698 69.3834 114.002 68.2989Z" fill="#EF042D"/>
<path opacity="0.3" d="M106.604 77.4074C106.209 77.4063 105.825 77.5326 105.508 77.7675C105.959 77.6859 106.405 77.5808 106.844 77.4524L106.604 77.4074ZM112.846 69.5744V69.4843C112.699 69.0964 112.409 68.7795 112.036 68.599C111.827 68.4829 111.596 68.4122 111.359 68.3915C111.121 68.3708 110.881 68.4006 110.655 68.4789H110.58C110.228 68.6071 109.924 68.8424 109.711 69.1518C109.499 69.4612 109.388 69.8293 109.395 70.2046C109.391 70.4048 109.426 70.6037 109.5 70.7898C109.573 70.9791 109.674 71.1562 109.8 71.315C110.03 71.5877 110.331 71.7904 110.67 71.9003C111.036 72.0205 111.43 72.0205 111.796 71.9003C112.03 71.8227 112.241 71.6887 112.411 71.5101C112.667 71.2702 112.848 70.9605 112.931 70.6193C113.013 70.278 112.994 69.92 112.876 69.5894L112.846 69.5744ZM100.602 72.0503C100.562 71.9333 100.506 71.8223 100.437 71.7202L100.332 71.5851C100.269 71.4945 100.193 71.4136 100.106 71.345C99.8609 71.1382 99.5656 70.9989 99.2499 70.941C98.9341 70.8831 98.6087 70.9086 98.3057 71.0149C98.0828 71.0954 97.8779 71.219 97.7029 71.3788C97.5279 71.5386 97.3861 71.7314 97.2857 71.946C97.1853 72.1607 97.1283 72.3931 97.118 72.6299C97.1076 72.8667 97.1441 73.1032 97.2253 73.3258C97.2519 73.4239 97.2978 73.5157 97.3604 73.5959C97.4485 73.7519 97.5598 73.8935 97.6905 74.0161C97.9858 74.296 98.3673 74.4677 98.7726 74.5031C99.178 74.5385 99.5834 74.4356 99.9228 74.2111C100.262 73.9865 100.516 73.6537 100.642 73.2668C100.768 72.8798 100.759 72.4616 100.617 72.0803L100.602 72.0503Z" fill="white"/>
<path opacity="0.1" d="M110.76 67.7587C110.318 69.2726 110.318 70.8815 110.76 72.3954C111.158 73.3092 111.752 74.1239 112.501 74.7814C114.362 73.6259 115.682 72.4555 115.502 71.7802C115.133 70.536 114.593 69.3491 113.897 68.2539C113.897 68.2539 112.696 68.0288 110.76 67.7587Z" fill="#050400"/>
<path d="M112.321 71.3901C112.702 72.2181 113.32 72.9144 114.097 73.3909C114.874 73.8675 115.775 74.1028 116.686 74.0671C117.597 74.0315 118.477 73.7264 119.214 73.1906C119.951 72.6548 120.513 71.9122 120.828 71.057C121.144 70.2017 121.198 69.2722 120.985 68.386C120.771 67.4998 120.3 66.6968 119.63 66.0786C118.96 65.4604 118.122 65.0548 117.222 64.9131C116.321 64.7715 115.399 64.9001 114.572 65.2827C114.022 65.5348 113.528 65.893 113.117 66.3368C112.706 66.7806 112.387 67.3012 112.177 67.8687C111.968 68.4362 111.873 69.0394 111.898 69.6437C111.923 70.248 112.066 70.8415 112.321 71.3901Z" fill="#EF042D"/>
</svg>
