 <svg width="80" height="80" viewBox="0 0 219 196" fill="none"
                                                    xmlns="http://www.w3.org/2000/svg">
                                                    <path
                                                        d="M109.5 163C145.675 163 175 133.675 175 97.5C175 61.3253 145.675 32 109.5 32C73.3253 32 44 61.3253 44 97.5C44 133.675 73.3253 163 109.5 163Z"
                                                        fill="#A6A6A6" />
                                                    <path
                                                        d="M147.505 150.917C146.149 151.888 144.762 152.797 143.344 153.676C139.914 155.732 136.303 157.471 132.556 158.87C131.678 159.209 130.784 159.517 129.89 159.825C127.871 160.488 125.79 161.058 123.725 161.52C121.876 161.921 119.995 162.26 118.084 162.507C115.572 158.762 113.461 155.51 112.089 152.998C111.134 151.333 109.87 149.006 108.591 146.386C104.63 138.357 100.453 127.553 104.322 124.609L104.537 124.455L104.846 124.286L105.046 124.193C105.402 124.034 105.782 123.935 106.171 123.9C106.713 123.83 107.262 123.83 107.805 123.9C110.617 124.35 113.326 125.3 115.803 126.705V126.705C116.528 127.06 117.268 127.46 118.069 127.907L118.377 128.077C124.943 131.745 136.209 141.115 147.505 150.917Z"
                                                        fill="#FFC4C0" />
                                                    <path opacity="0.1"
                                                        d="M143.36 153.599C139.929 155.655 136.318 157.394 132.571 158.793C131.693 159.132 130.799 159.44 129.905 159.748C127.886 160.411 125.806 160.981 123.74 161.443C121.891 161.844 120.011 162.183 118.1 162.43L116.959 162.568C112.937 156.25 109.546 150.547 107.188 146.093L106.788 145.338C105.955 143.725 105.231 142.184 104.614 140.715C104.152 139.687 103.751 138.66 103.412 137.632C103.197 136.985 102.996 136.353 102.811 135.737C102.657 135.197 102.534 134.689 102.411 134.195C102.287 133.702 102.21 133.194 102.133 132.654C101.94 131.514 101.878 130.356 101.948 129.202C101.992 128.366 102.174 127.543 102.488 126.767C102.63 126.409 102.811 126.068 103.027 125.75L103.351 125.318C103.471 125.177 103.6 125.043 103.736 124.918C103.865 124.793 104.004 124.679 104.152 124.578L104.337 124.455L104.553 124.301L104.861 124.132L105.061 124.039C105.385 123.898 105.72 123.785 106.063 123.7C106.512 123.585 106.972 123.512 107.435 123.484L107.774 123.762L113.23 128.385L117.653 132.084L119.764 133.856L143.36 153.599Z"
                                                        fill="black" />
                                                    <path
                                                        d="M107.589 157.082C105.91 157.054 104.242 157.347 102.673 157.945C104.24 158.55 105.91 158.843 107.589 158.808C109.273 158.839 110.947 158.546 112.521 157.945C110.947 157.344 109.273 157.051 107.589 157.082V157.082ZM79.6012 134.642C79.37 134.75 79.1542 134.889 78.9385 135.012C78.7187 135.136 78.5075 135.276 78.3066 135.428C78.2056 135.482 78.1123 135.55 78.0292 135.629L77.7055 135.86C77.2123 136.245 76.7654 136.661 76.3185 137.077C75.1115 138.253 74.1342 139.643 73.4365 141.177C73.818 141.022 74.1887 140.842 74.5461 140.638C75.6383 139.993 76.6431 139.211 77.536 138.31C78.7466 137.141 79.7199 135.749 80.4026 134.211L79.6012 134.642ZM120.858 136.091C120.55 135.444 120.242 134.796 119.918 134.165L119.502 133.826L119.194 133.594C119.029 133.462 118.854 133.344 118.67 133.24L118.146 132.901L117.838 132.731L117.637 132.623L116.99 132.331C117.143 132.7 117.318 133.061 117.514 133.409C118.164 134.53 118.951 135.565 119.857 136.492L120.889 137.432L121.737 138.095C121.475 137.355 121.167 136.708 120.858 136.06V136.091ZM120.858 136.091C120.55 135.444 120.242 134.796 119.918 134.165L119.502 133.826L119.194 133.594C119.029 133.462 118.854 133.344 118.67 133.24L118.146 132.901L117.838 132.731L117.637 132.623L116.99 132.331C117.143 132.7 117.318 133.061 117.514 133.409C118.164 134.53 118.951 135.565 119.857 136.492L120.889 137.432L121.737 138.095C121.475 137.355 121.167 136.708 120.858 136.06V136.091Z"
                                                        fill="white" />
                                                    <path
                                                        d="M94.3657 134.38C93.7159 138.927 92.6532 143.404 91.1908 147.758C89.8654 151.888 88.5554 155.664 87.2762 159.132C80.832 156.788 74.7945 153.449 69.3832 149.237C68.0886 148.236 66.8248 147.172 65.6227 146.155C67.8112 143.242 70.0151 140.422 72.2035 137.725C79.4779 128.77 85.7042 123.854 89.7421 123.561H90.2045C93.5951 123.453 95.2595 126.998 94.3657 134.38Z"
                                                        fill="#FFC4C0" />
                                                    <path
                                                        d="M95.2287 135.675C94.8918 138.459 94.3771 141.218 93.6875 143.936C92.5996 147.847 91.2822 151.692 89.7421 155.448V155.448L88.1085 159.44H87.9544L87.2146 159.178C80.7891 156.814 74.7726 153.46 69.3832 149.237C68.0886 148.236 66.8248 147.172 65.6227 146.155L64.3744 144.999C68.3581 139.776 72.7932 134.912 77.6285 130.466C83.5774 125.226 87.6307 123.13 90.3586 123.006H90.9134C95.5832 123.176 95.8606 129.896 95.2287 135.675Z"
                                                        fill="#EF042D" />
                                                    <path
                                                        d="M79.6012 134.612C79.37 134.719 79.1542 134.858 78.9385 134.981C78.7187 135.106 78.5075 135.245 78.3066 135.398C78.2056 135.452 78.1123 135.519 78.0292 135.598L77.6747 135.875C77.1815 136.261 76.7346 136.677 76.2876 137.093C75.0807 138.268 74.1033 139.659 73.4056 141.192C73.7871 141.037 74.1578 140.857 74.5153 140.653C75.6074 140.008 76.6123 139.226 77.5052 138.326C78.7158 137.157 79.6891 135.765 80.3718 134.226L79.6012 134.612Z"
                                                        fill="white" />
                                                    <path
                                                        d="M89.8038 155.448C89.326 156.789 88.8328 158.13 88.3396 159.455H88.1701H88.016C88.5862 158.145 89.1565 156.835 89.6959 155.51L89.8038 155.448Z"
                                                        fill="#263238" />
                                                    <path
                                                        d="M109.084 146.294C102.133 146.54 92.732 134.149 89.85 125.041C89.6651 124.409 91.6994 118.645 93.8416 111.509C95.1208 107.179 96.4462 102.262 97.3401 97.7928C97.5251 96.8681 124.326 110.276 124.326 110.276C121.593 115.603 119.523 121.245 118.161 127.075C118.047 127.7 117.99 128.335 117.992 128.971C117.992 129.063 117.992 129.171 117.992 129.279C117.853 132.962 115.803 146.078 109.084 146.294Z"
                                                        fill="#FFC4C0" />
                                                    <path
                                                        d="M99.0662 98.3015C98.8659 106.208 99.9755 125.596 115.033 128.925C115.995 129.147 116.975 129.281 117.961 129.325C117.967 129.223 117.967 129.12 117.961 129.017C117.961 128.382 118.012 127.748 118.115 127.121C119.475 121.286 121.545 115.639 124.28 110.307C124.28 110.307 104.984 100.644 99.0662 98.3015Z"
                                                        fill="#263238" />
                                                    <path
                                                        d="M92.5008 68.1252C89.6034 78.4202 95.5832 107.888 103.058 114.36C113.846 123.7 131.107 124.239 138.967 111.386C146.581 98.9179 138.043 60.6505 129.72 54.8402C117.622 46.2251 96.8161 52.8984 92.5008 68.1252Z"
                                                        fill="#FFC4C0" />
                                                    <path
                                                        d="M118.316 86.7272C118.316 86.7272 118.177 86.8659 118.208 86.943C118.732 88.9003 119.009 91.2274 117.391 92.3063C117.391 92.3063 117.391 92.4449 117.391 92.4141C119.533 91.5819 119.132 88.4996 118.316 86.7272Z"
                                                        fill="#263238" />
                                                    <path
                                                        d="M116.065 85.0935C112.829 85.6175 114.108 92.0288 117.098 91.551C120.088 91.0733 118.701 84.6466 116.065 85.0935Z"
                                                        fill="#263238" />
                                                    <path
                                                        d="M129.705 84.4462C129.705 84.3692 129.874 84.4463 129.89 84.585C130.229 86.5885 130.938 88.8232 132.864 89.1314C132.864 89.1314 132.941 89.2393 132.864 89.2393C130.614 89.3626 129.689 86.3881 129.705 84.4462Z"
                                                        fill="#263238" />
                                                    <path
                                                        d="M131.03 82.0112C134.113 81.1481 135.654 87.4978 132.787 88.3146C129.921 89.1314 128.426 82.7509 131.03 82.0112Z"
                                                        fill="#263238" />
                                                    <path
                                                        d="M113.045 81.9495C113.877 81.5488 114.586 81.0556 115.372 80.5933C116.158 80.1309 117.006 79.7302 117.468 78.7593C117.555 78.4785 117.55 78.1772 117.452 77.8997C117.355 77.6222 117.172 77.3832 116.928 77.2181C116.379 76.9525 115.768 76.841 115.16 76.8952C114.552 76.9495 113.97 77.1676 113.476 77.5263C112.357 78.0881 111.485 79.0429 111.026 80.208C110.976 80.4733 110.996 80.7471 111.086 81.002C111.175 81.2569 111.329 81.4838 111.534 81.6602C111.738 81.8366 111.985 81.9561 112.251 82.0069C112.516 82.0577 112.79 82.0379 113.045 81.9495Z"
                                                        fill="#263238" />
                                                    <path
                                                        d="M133.434 79.4066C132.541 79.4526 131.646 79.4526 130.753 79.4066C129.806 79.5469 128.839 79.3794 127.994 78.9288C127.759 78.7331 127.596 78.4653 127.529 78.1671C127.462 77.8689 127.496 77.557 127.624 77.2798C127.956 76.7731 128.416 76.3635 128.957 76.0928C129.499 75.822 130.102 75.6998 130.707 75.7386C131.955 75.6408 133.196 76.0086 134.19 76.7712C134.396 76.9651 134.545 77.2122 134.621 77.4853C134.696 77.7584 134.694 78.047 134.616 78.3193C134.538 78.5917 134.387 78.8373 134.178 79.0291C133.97 79.2209 133.712 79.3515 133.434 79.4066V79.4066Z"
                                                        fill="#263238" />
                                                    <path
                                                        d="M121.244 98.3322C121.902 99.0219 122.697 99.5661 123.579 99.9297C124.46 100.293 125.407 100.468 126.36 100.444C127.191 100.435 128.015 100.311 128.811 100.074C128.965 100.044 129.114 99.9973 129.258 99.935L129.689 99.7809C129.79 99.7384 129.875 99.6645 129.93 99.57C129.986 99.4756 130.01 99.3658 129.998 99.2569C130.006 99.1904 130.006 99.1231 129.998 99.0566V98.8871C129.736 97.3459 129.135 95.0495 129.135 95.0495C129.736 95.219 132.849 95.928 132.648 95.142C131.099 88.2803 128.858 81.5933 125.96 75.1837C125.952 75.1605 125.939 75.139 125.923 75.1206C125.906 75.1022 125.886 75.0872 125.864 75.0765C125.842 75.0658 125.818 75.0595 125.793 75.0581C125.769 75.0566 125.744 75.0601 125.721 75.0682C125.698 75.0763 125.676 75.0889 125.658 75.1053C125.639 75.1216 125.624 75.1415 125.614 75.1637C125.603 75.1858 125.597 75.2099 125.595 75.2345C125.594 75.2591 125.597 75.2838 125.605 75.307C126.992 81.6567 129.489 87.7135 130.999 94.0786C129.891 93.807 128.749 93.6928 127.609 93.7395C127.408 93.8474 128.873 98.1627 128.934 98.8562V98.9333C127.707 99.307 126.416 99.43 125.14 99.2949C123.864 99.1599 122.628 98.7696 121.506 98.1473C121.228 98.0394 121.09 98.1935 121.244 98.3322Z"
                                                        fill="#263238" />
                                                    <path
                                                        d="M91.3603 91.1812C99.1741 91.5665 103.058 82.1653 101.07 74.7061C101.07 74.7061 121.891 77.0332 122.538 60.3423C124.048 62.5716 126.083 64.3945 128.465 65.6499C130.847 66.9052 133.501 67.5542 136.193 67.5396L138.644 73.6272C140.755 72.9645 142.897 66.8615 137.58 62.2225C137.58 62.2225 137.056 53.931 130.814 49.0763C129.134 47.676 127.083 46.7937 124.911 46.5366C122.739 46.2794 120.539 46.6584 118.578 47.6276C114.909 45.0806 110.392 44.0634 105.986 44.7918C103.691 45.2142 101.53 46.1767 99.681 47.5998C97.8319 49.0228 96.348 50.8654 95.352 52.9755C95.352 52.9755 85.1186 55.1639 83.5158 62.5153C83.018 64.5885 82.9639 66.7435 83.3569 68.839C83.75 70.9345 84.5814 72.9234 85.7967 74.6752C85.7967 74.6752 83.2846 77.588 84.7179 83.799C85.6426 87.729 89.0023 91.0579 91.3603 91.1812Z"
                                                        fill="#263238" />
                                                    <path
                                                        d="M122.045 58.8627C122.232 60.2106 122.274 61.5747 122.168 62.9314C122.112 64.274 121.89 65.6044 121.506 66.8922C120.799 69.4577 119.147 71.6603 116.882 73.0569C114.541 74.3339 111.934 75.0463 109.269 75.1375C107.928 75.1375 106.572 75.1375 105.216 75.1375C103.859 75.1375 102.503 74.8909 101.131 74.7985C102.457 75.1067 103.813 75.3379 105.169 75.5999C106.526 75.8619 107.913 75.7848 109.3 75.8927C112.117 75.916 114.895 75.2268 117.375 73.8892C119.825 72.384 121.586 69.9762 122.276 67.185C122.911 64.4367 122.831 61.5716 122.045 58.8627V58.8627Z"
                                                        fill="#263238" />
                                                    <path
                                                        d="M132.941 68.2793C130.654 67.5478 128.504 66.4439 126.576 65.012C125.638 64.3045 124.802 63.4693 124.095 62.5307C123.374 61.5752 122.764 60.5411 122.276 59.4484C122.431 60.6948 122.84 61.8962 123.478 62.9777C124.119 64.0804 124.973 65.0444 125.991 65.8134C126.995 66.5784 128.113 67.1816 129.304 67.6012C130.471 68.0242 131.7 68.2533 132.941 68.2793V68.2793Z"
                                                        fill="#263238" />
                                                    <path
                                                        d="M99.3591 92.0905C99.3591 92.0905 92.2697 82.8434 88.0314 85.3709C83.7932 87.8985 89.3877 101.584 94.566 103.264C95.2151 103.527 95.9107 103.655 96.6108 103.641C97.3109 103.627 98.0009 103.471 98.6391 103.183C99.2773 102.895 99.8504 102.481 100.324 101.965C100.797 101.449 101.161 100.842 101.393 100.182L99.3591 92.0905Z"
                                                        fill="#FFC4C0" />
                                                    <path
                                                        d="M89.7421 89.2701V89.4088C93.3793 90.7034 95.3982 93.9399 96.847 97.3151C96.6254 96.9667 96.3308 96.6706 95.9835 96.4472C95.6363 96.2238 95.2447 96.0786 94.8358 96.0214C94.4269 95.9643 94.0105 95.9966 93.6153 96.1162C93.2201 96.2357 92.8557 96.4397 92.5471 96.714C92.5301 96.7299 92.5188 96.7508 92.5147 96.7737C92.5106 96.7966 92.514 96.8201 92.5244 96.8409C92.5348 96.8617 92.5516 96.8786 92.5723 96.889C92.5931 96.8995 92.6166 96.9029 92.6395 96.8989C93.2609 96.6765 93.9357 96.6504 94.5724 96.8241C95.2092 96.9977 95.7772 97.3628 96.1996 97.8699C96.8909 98.7296 97.4901 99.6594 97.9874 100.644C98.1723 100.952 98.7426 100.752 98.6039 100.397V100.305C98.4498 95.7276 94.6431 89.5013 89.7421 89.2701Z"
                                                        fill="#263238" />
                                                    <g opacity="0.2">
                                                        <path opacity="0.2"
                                                            d="M108.729 94.8491C108.722 94.9745 108.666 95.0922 108.575 95.1781C108.483 95.264 108.362 95.3117 108.236 95.3115C108.112 95.3002 107.997 95.2438 107.911 95.1529C107.826 95.0619 107.777 94.9429 107.774 94.8183C107.774 94.6916 107.824 94.5701 107.914 94.4805C108.003 94.3909 108.125 94.3405 108.252 94.3405C108.378 94.3405 108.5 94.3909 108.589 94.4805C108.679 94.5701 108.729 94.6916 108.729 94.8183V94.8491Z"
                                                            fill="black" />
                                                        <path opacity="0.2"
                                                            d="M118.701 94.8183C118.681 94.9284 118.623 95.028 118.537 95.0997C118.451 95.1713 118.343 95.2106 118.231 95.2106C118.119 95.2106 118.011 95.1713 117.925 95.0997C117.839 95.028 117.781 94.9284 117.761 94.8183C117.763 94.7562 117.777 94.6952 117.803 94.6388C117.829 94.5824 117.866 94.5318 117.912 94.4901C117.958 94.4484 118.012 94.4164 118.071 94.396C118.13 94.3756 118.192 94.3672 118.254 94.3714C118.37 94.3787 118.48 94.4281 118.562 94.5104C118.644 94.5927 118.694 94.7022 118.701 94.8183Z"
                                                            fill="black" />
                                                        <path opacity="0.2"
                                                            d="M115.002 98.1319C114.994 98.2573 114.939 98.3749 114.847 98.4608C114.755 98.5468 114.634 98.5945 114.509 98.5942C114.447 98.5923 114.386 98.5779 114.329 98.5518C114.273 98.5258 114.222 98.4886 114.181 98.4426C114.139 98.3965 114.107 98.3426 114.086 98.2839C114.066 98.2252 114.058 98.163 114.062 98.101C114.064 98.0383 114.078 97.9766 114.104 97.9194C114.13 97.8621 114.167 97.8106 114.213 97.7676C114.258 97.7247 114.312 97.6912 114.371 97.6691C114.43 97.647 114.492 97.6366 114.555 97.6387C114.617 97.6406 114.678 97.6551 114.735 97.6811C114.791 97.7072 114.842 97.7443 114.883 97.7903C114.925 97.8364 114.957 97.8904 114.977 97.949C114.998 98.0077 115.006 98.0699 115.002 98.1319V98.1319Z"
                                                            fill="black" />
                                                        <path opacity="0.2"
                                                            d="M109.161 90.9654C109.153 91.0894 109.097 91.2054 109.005 91.2889C108.913 91.3723 108.792 91.4166 108.668 91.4123C108.606 91.4104 108.545 91.396 108.488 91.3699C108.432 91.3439 108.381 91.3067 108.34 91.2607C108.298 91.2146 108.266 91.1607 108.245 91.102C108.225 91.0433 108.217 90.9812 108.221 90.9192C108.208 90.8503 108.211 90.7795 108.229 90.7119C108.247 90.6442 108.279 90.5813 108.324 90.5276C108.369 90.4738 108.425 90.4306 108.488 90.401C108.552 90.3713 108.621 90.3559 108.691 90.3559C108.761 90.3559 108.83 90.3713 108.893 90.401C108.957 90.4306 109.013 90.4738 109.058 90.5276C109.103 90.5813 109.135 90.6442 109.153 90.7119C109.171 90.7795 109.173 90.8503 109.161 90.9192V90.9654Z"
                                                            fill="black" />
                                                        <path opacity="0.2"
                                                            d="M113.707 93.8936C113.705 93.9564 113.691 94.0181 113.665 94.0753C113.639 94.1325 113.602 94.1841 113.557 94.227C113.511 94.2699 113.457 94.3034 113.398 94.3256C113.34 94.3477 113.277 94.358 113.214 94.356C113.152 94.354 113.091 94.3396 113.035 94.3135C112.978 94.2875 112.928 94.2503 112.886 94.2043C112.844 94.1583 112.812 94.1043 112.792 94.0456C112.771 93.987 112.763 93.9248 112.767 93.8628C112.775 93.7374 112.831 93.6197 112.922 93.5338C113.014 93.4479 113.135 93.4002 113.26 93.4004C113.323 93.4024 113.384 93.4168 113.44 93.4428C113.496 93.4689 113.547 93.506 113.589 93.5521C113.63 93.5981 113.662 93.6521 113.683 93.7108C113.703 93.7694 113.712 93.8316 113.707 93.8936V93.8936Z"
                                                            fill="black" />
                                                        <path opacity="0.2"
                                                            d="M138.335 88.0372C138.333 88.0993 138.319 88.1603 138.293 88.2167C138.267 88.2731 138.23 88.3237 138.184 88.3654C138.138 88.4071 138.084 88.4391 138.025 88.4595C137.966 88.4799 137.904 88.4883 137.842 88.4841C137.718 88.4762 137.602 88.4202 137.519 88.3282C137.435 88.2361 137.391 88.1151 137.395 87.9909C137.415 87.8809 137.473 87.7813 137.559 87.7096C137.645 87.6379 137.753 87.5986 137.865 87.5986C137.977 87.5986 138.086 87.6379 138.171 87.7096C138.257 87.7813 138.315 87.8809 138.335 87.9909V88.0372Z"
                                                            fill="black" />
                                                        <path opacity="0.2"
                                                            d="M134.544 90.5647C134.542 90.6268 134.528 90.6879 134.502 90.7443C134.476 90.8006 134.439 90.8512 134.392 90.8929C134.346 90.9347 134.292 90.9667 134.234 90.9871C134.175 91.0075 134.113 91.0158 134.051 91.0117C133.926 91.0038 133.808 90.9484 133.722 90.8567C133.636 90.7651 133.588 90.6441 133.589 90.5185C133.591 90.4564 133.605 90.3953 133.631 90.3389C133.657 90.2825 133.694 90.232 133.74 90.1903C133.786 90.1485 133.84 90.1165 133.899 90.0961C133.958 90.0757 134.02 90.0674 134.082 90.0715C134.207 90.0794 134.325 90.1348 134.411 90.2264C134.497 90.3181 134.544 90.4391 134.544 90.5647V90.5647Z"
                                                            fill="black" />
                                                        <path opacity="0.2"
                                                            d="M135.346 93.7241C135.338 93.8481 135.282 93.9641 135.19 94.0476C135.097 94.131 134.977 94.1753 134.852 94.171C134.79 94.1691 134.729 94.1547 134.673 94.1286C134.616 94.1026 134.566 94.0654 134.524 94.0194C134.482 93.9734 134.45 93.9194 134.43 93.8607C134.41 93.802 134.401 93.7398 134.405 93.6779C134.425 93.5678 134.483 93.4682 134.569 93.3965C134.655 93.3248 134.764 93.2856 134.875 93.2856C134.987 93.2856 135.096 93.3248 135.182 93.3965C135.268 93.4682 135.326 93.5678 135.346 93.6779V93.7241Z"
                                                            fill="black" />
                                                        <path opacity="0.2"
                                                            d="M138.736 91.6897C138.734 91.7518 138.72 91.8129 138.694 91.8693C138.668 91.9257 138.631 91.9762 138.584 92.018C138.538 92.0597 138.484 92.0917 138.426 92.1121C138.367 92.1325 138.305 92.1408 138.243 92.1367C138.174 92.1492 138.103 92.1464 138.036 92.1286C137.968 92.1107 137.905 92.0782 137.851 92.0334C137.798 91.9886 137.754 91.9325 137.725 91.8691C137.695 91.8057 137.68 91.7366 137.68 91.6666C137.68 91.5966 137.695 91.5275 137.725 91.4641C137.754 91.4007 137.798 91.3446 137.851 91.2998C137.905 91.255 137.968 91.2225 138.036 91.2046C138.103 91.1868 138.174 91.184 138.243 91.1965C138.374 91.1965 138.499 91.2485 138.592 91.341C138.684 91.4335 138.736 91.5589 138.736 91.6897Z"
                                                            fill="black" />
                                                    </g>
                                                </svg>